<svg width="100%" height="400" viewBox="0 0 1000 400" xmlns="http://www.w3.org/2000/svg">
  <defs>
    <linearGradient id="mainFlowGradient" x1="0%" y1="0%" x2="100%" y2="0%">
      <stop offset="0%" stop-color="#2196F3" />
      <stop offset="60%" stop-color="#9dd3ff" />
      <stop offset="100%" stop-color="#00ffff" />
    </linearGradient>

    <linearGradient id="deepLayerGradient" x1="0%" y1="0%" x2="100%" y2="0%">
      <stop offset="0%" stop-color="#002884" />
      <stop offset="100%" stop-color="#2196F3" />
    </linearGradient>
  </defs>

  <rect x="0" y="0" width="1000" height="400" fill="#002884" />

  <path
    d="M0,400 Q200,300 400,380 T1000,300 L1000,400 L0,400 Z"
    fill="url(#deepLayerGradient)"
    opacity="0.9"
  />

  <path
    d="M0,320 Q250,220 500,300 T1000,200 L1000,400 L0,400 Z"
    fill="url(#mainFlowGradient)"
    opacity="0.95"
  />

  <path
    d="M0,280 Q300,180 600,260 T1000,160 L1000,400 L0,400 Z"
    fill="#9dd3ff"
    opacity="0.8"
  />

  <path
    d="M0,200 Q350,100 700,180 T1000,80 L1000,400 L0,400 Z"
    fill="#00ffff"
    opacity="0.7"
  />

  <path
    d="M0,150 Q400,50 800,130 T1000,30 L1000,40 L0,160 Z"
    fill="#ffffff"
    opacity="0.3"
  />

</svg>